Coordinates
version=1
nRows=28
nColumns=38
inDegrees=no

Units are S.I. units (second, meters, Newtons, ...)
If the header above contains a line with 'inDegrees', this indicates whether rotational values are in degrees (yes) or radians (no).

endheader
time	pelvis_tilt	pelvis_list	pelvis_rotation	pelvis_tx	pelvis_ty	pelvis_tz	hip_flexion_r	hip_adduction_r	hip_rotation_r	knee_angle_r	ankle_angle_r	subtalar_angle_r	mtp_angle_r	hip_flexion_l	hip_adduction_l	hip_rotation_l	knee_angle_l	ankle_angle_l	subtalar_angle_l	mtp_angle_l	lumbar_extension	lumbar_bending	lumbar_rotation	arm_flex_r	arm_add_r	arm_rot_r	elbow_flex_r	pro_sup_r	wrist_flex_r	wrist_dev_r	arm_flex_l	arm_add_l	arm_rot_l	elbow_flex_l	pro_sup_l	wrist_flex_l	wrist_dev_l
35	0.032782	1.45073	1.46918	0.660492	0.821018	0.902581	0.656802	-0.180429	-0.164725	1.24215	0.0912237	0	0	0.580331	-0.160743	-0.235384	1.21123	0.097286	0	0	-0.134024	0.229888	-0.203177	0.528606	-0.322619	0.391444	0	1.42076	0	0	-0.132491	-0.286434	0.0456221	0.839512	1.35568	0	0
35.01	0.0224267	1.45172	1.48011	0.659801	0.820729	0.897658	0.665153	-0.185171	-0.162565	1.26219	0.0997026	0	0	0.588402	-0.157838	-0.229519	1.2324	0.107715	0	0	-0.138242	0.23465	-0.200345	0.530293	-0.330314	0.391405	0	1.41182	0	0	-0.127237	-0.282902	0.0468658	0.832431	1.35075	0	0
35.02	0.0111498	1.45221	1.49151	0.659142	0.8205	0.892804	0.673764	-0.189754	-0.160562	1.28136	0.10806	0	0	0.59655	-0.154902	-0.224287	1.2528	0.117863	0	0	-0.141911	0.2394	-0.196929	0.531445	-0.338124	0.390704	0	1.40199	0	0	-0.12194	-0.279186	0.0492367	0.824534	1.3448	0	0
35.03	-0.00353213	1.45281	1.50514	0.658581	0.820274	0.888056	0.682439	-0.193907	-0.157265	1.3001	0.115936	0	0	0.603921	-0.152211	-0.220334	1.27266	0.127755	0	0	-0.145933	0.24367	-0.19265	0.532697	-0.345738	0.390814	0	1.39266	0	0	-0.116724	-0.275858	0.0533915	0.816256	1.33743	0	0
35.04	-0.0211401	1.45358	1.52075	0.658103	0.820053	0.883459	0.690937	-0.197674	-0.152954	1.31811	0.123288	0	0	0.610446	-0.149712	-0.217339	1.29176	0.136994	0	0	-0.150463	0.247519	-0.187613	0.534156	-0.353001	0.391513	0	1.3839	0	0	-0.111345	-0.27296	0.0594881	0.8076	1.32895	0	0
35.05	-0.040504	1.45439	1.53755	0.65766	0.819833	0.879012	0.699264	-0.2012	-0.148128	1.33545	0.129992	0	0	0.616589	-0.147174	-0.215169	1.31003	0.145716	0	0	-0.154958	0.251016	-0.182038	0.535392	-0.360232	0.393692	0	1.37669	0	0	-0.105837	-0.270597	0.0678979	0.798762	1.31974	0	0
35.06	-0.0613929	1.45485	1.55554	0.65725	0.819637	0.874708	0.707677	-0.204458	-0.142941	1.35216	0.136229	0	0	0.622714	-0.144681	-0.213558	1.32767	0.154064	0	0	-0.159066	0.254288	-0.176519	0.536444	-0.367162	0.397454	0	1.37085	0	0	-0.100553	-0.268978	0.0789501	0.789999	1.31042	0	0
35.07	-0.0828533	1.4549	1.57387	0.656872	0.819483	0.870553	0.716117	-0.207382	-0.137625	1.36794	0.142278	0	0	0.628736	-0.142424	-0.212353	1.34466	0.161948	0	0	-0.162716	0.257391	-0.171304	0.537449	-0.373598	0.403534	0	1.36678	0	0	-0.095703	-0.267957	0.0919849	0.781488	1.30151	0	0
35.08	-0.104704	1.4546	1.59235	0.656515	0.819346	0.866529	0.724669	-0.209885	-0.131966	1.38305	0.147961	0	0	0.634738	-0.140179	-0.211364	1.36094	0.169384	0	0	-0.165936	0.260275	-0.166207	0.538313	-0.379682	0.411611	0	1.3631	0	0	-0.091332	-0.267495	0.106607	0.77359	1.29296	0	0
35.09	-0.126817	1.45394	1.61128	0.656115	0.819208	0.862645	0.733306	-0.212425	-0.126478	1.39755	0.153367	0	0	0.640927	-0.137441	-0.21027	1.37632	0.176726	0	0	-0.16864	0.263091	-0.16179	0.539253	-0.385378	0.421498	0	1.35852	0	0	-0.0870946	-0.267518	0.12299	0.765776	1.28531	0	0
35.1	-0.15046	1.45258	1.63172	0.655722	0.81912	0.858863	0.742698	-0.214954	-0.120481	1.41203	0.15889	0	0	0.647569	-0.134398	-0.209445	1.39133	0.1848	0	0	-0.170094	0.26536	-0.15801	0.539712	-0.390307	0.432481	0	1.35175	0	0	-0.0834204	-0.268166	0.141094	0.758032	1.27914	0	0
35.11	-0.171625	1.45207	1.65004	0.655295	0.819061	0.855413	0.750362	-0.217239	-0.115092	1.42467	0.161807	0	0	0.652842	-0.131383	-0.208758	1.4048	0.189284	0	0	-0.173829	0.267372	-0.155674	0.54115	-0.394078	0.440336	0.00136807	1.34672	0	0	-0.0815033	-0.267525	0.151841	0.753238	1.27634	0	0
35.12	-0.190723	1.4507	1.66662	0.654879	0.819073	0.852088	0.758717	-0.219364	-0.109721	1.43716	0.165712	0	0	0.658834	-0.128245	-0.207791	1.41774	0.195541	0	0	-0.17575	0.268955	-0.153923	0.539556	-0.399148	0.454247	0.0116328	1.33939	0	0	-0.0797185	-0.26855	0.1671	0.748299	1.27235	0	0
35.13	-0.198147	1.44978	1.67189	0.654262	0.819143	0.848986	0.765792	-0.220598	-0.105791	1.44829	0.166334	0	0	0.664366	-0.126013	-0.205842	1.43034	0.198221	0	0	-0.183988	0.271288	-0.153811	0.55664	-0.395792	0.366354	0	1.45134	0	0	-0.0845449	-0.256046	0.133003	0.75052	1.31501	0	0
35.14	-0.213838	1.44895	1.68558	0.653782	0.819143	0.846077	0.772644	-0.222401	-0.101157	1.45909	0.170369	0	0	0.669322	-0.122781	-0.204263	1.44181	0.204045	0	0	-0.185906	0.273241	-0.152576	0.55871	-0.399108	0.368356	0.00249428	1.46693	0	0	-0.0816855	-0.258808	0.154644	0.744618	1.30608	0	0
35.15	-0.229522	1.44921	1.69812	0.65338	0.819016	0.843443	0.778285	-0.223006	-0.0954889	1.46878	0.173074	0	0	0.67269	-0.120446	-0.204085	1.45237	0.20845	0	0	-0.19059	0.275089	-0.15049	0.562023	-0.402147	0.370896	0.00726132	1.47679	0	0	-0.0791595	-0.260015	0.169773	0.740363	1.30209	0	0
35.16	-0.245054	1.44943	1.71015	0.653005	0.818841	0.840962	0.783746	-0.223066	-0.0895026	1.47794	0.175785	0	0	0.675733	-0.118305	-0.204208	1.4621	0.213021	0	0	-0.195344	0.276982	-0.147806	0.565216	-0.405364	0.373906	0.0123187	1.48546	0	0	-0.0762652	-0.261195	0.185034	0.736308	1.29808	0	0
35.17	-0.2568	1.44671	1.72197	0.652352	0.819007	0.838358	0.790873	-0.226131	-0.0869551	1.48698	0.178657	0	0	0.682308	-0.113448	-0.200711	1.47144	0.217342	0	0	-0.194677	0.279237	-0.148928	0.565693	-0.408809	0.375271	0.0179992	1.49225	0	0	-0.0749949	-0.261879	0.1995	0.732005	1.29537	0	0
35.18	-0.270544	1.44525	1.73433	0.651886	0.81902	0.836024	0.79684	-0.227538	-0.0826614	1.49481	0.181489	0	0	0.686947	-0.109818	-0.198679	1.48016	0.221337	0	0	-0.196286	0.281102	-0.1481	0.567095	-0.41183	0.376263	0.022667	1.49632	0	0	-0.0726214	-0.262809	0.21386	0.727897	1.29395	0	0
35.19	-0.286865	1.44526	1.74764	0.651577	0.818877	0.833965	0.8015	-0.227437	-0.0768921	1.5015	0.184157	0	0	0.689447	-0.107376	-0.198368	1.48807	0.224944	0	0	-0.20058	0.282641	-0.145006	0.569659	-0.414538	0.376323	0.0260527	1.49738	0	0	-0.0689916	-0.263953	0.228133	0.724286	1.29459	0	0
35.2	-0.298391	1.44236	1.7601	0.650898	0.819126	0.831732	0.807571	-0.230713	-0.0747974	1.5077	0.187432	0	0	0.695637	-0.101825	-0.194455	1.49561	0.228144	0	0	-0.199065	0.284774	-0.145491	0.569112	-0.418047	0.3739	0.0297043	1.49767	0	0	-0.0666754	-0.264195	0.241382	0.720048	1.29951	0	0
35.21	-0.328496	1.43973	1.78948	0.650676	0.819177	0.829758	0.813553	-0.233729	-0.0691361	1.51337	0.192014	0	0	0.700138	-0.0956393	-0.193514	1.50149	0.23094	0	0	-0.195105	0.284424	-0.148329	0.528987	-0.470787	0.769394	0.142134	1.03415	0	0	-0.0647193	-0.266695	0.260093	0.712562	1.30064	0	0
35.22	-0.343927	1.4406	1.80086	0.650296	0.818944	0.828102	0.816405	-0.231908	-0.0623131	1.51753	0.1952	0	0	0.701138	-0.0933442	-0.193438	1.50796	0.234001	0	0	-0.203007	0.28591	-0.14102	0.548884	-0.442511	0.555587	0.0835154	1.29346	0	0	-0.0611306	-0.263969	0.258526	0.713466	1.32358	0	0
35.23	-0.364082	1.43834	1.82109	0.649711	0.818766	0.826367	0.821759	-0.234141	-0.0570562	1.52277	0.198054	0	0	0.706058	-0.0800176	-0.17956	1.5126	0.238611	0	0	-0.204343	0.286635	-0.139717	0.543417	-0.454205	0.610988	0.103928	1.2426	0	0	-0.0590324	-0.261954	0.258253	0.713141	1.34234	0	0
35.24	-0.380663	1.4364	1.83908	0.648986	0.818789	0.824732	0.826149	-0.237413	-0.0535582	1.52842	0.200037	0	0	0.710222	-0.0694078	-0.169682	1.51745	0.241738	0	0	-0.205173	0.288041	-0.138639	0.543272	-0.457519	0.601687	0.105909	1.26445	0	0	-0.0568575	-0.260697	0.261143	0.714347	1.35235	0	0
35.25	-0.397233	1.43439	1.85675	0.648313	0.81883	0.823228	0.830621	-0.240513	-0.04972	1.5341	0.201862	0	0	0.713924	-0.0596733	-0.161308	1.52177	0.244988	0	0	-0.205737	0.289271	-0.136729	0.541958	-0.462006	0.594324	0.109516	1.28637	0	0	-0.0548611	-0.258444	0.260989	0.715807	1.36329	0	0
35.26	-0.414398	1.43247	1.87523	0.647631	0.818836	0.821895	0.834803	-0.243798	-0.0459814	1.53948	0.20317	0	0	0.717217	-0.0489063	-0.151664	1.52536	0.247902	0	0	-0.20631	0.290495	-0.135141	0.541243	-0.466943	0.590022	0.112553	1.30266	0	0	-0.0531743	-0.255913	0.259015	0.718087	1.37218	0	0
35.27	-0.428438	1.42995	1.89146	0.64687	0.818879	0.820649	0.839296	-0.247595	-0.0429636	1.54444	0.204488	0	0	0.721005	-0.0367038	-0.139568	1.52832	0.25149	0	0	-0.20576	0.291974	-0.134309	0.53978	-0.472345	0.584314	0.115503	1.32081	0	0	-0.0524114	-0.252532	0.253373	0.721348	1.38241	0	0
